<?xml version="1.0" standalone="no"?>
<!DOCTYPE svg PUBLIC "-//W3C//DTD SVG 20010904//EN"
 "http://www.w3.org/TR/2001/REC-SVG-20010904/DTD/svg10.dtd">
<svg version="1.0" xmlns="http://www.w3.org/2000/svg"
 width="512.000000pt" height="512.000000pt" viewBox="0 0 512.000000 512.000000"
 preserveAspectRatio="xMidYMid meet">
<metadata>
Created by potrace 1.14, written by Peter Selinger 2001-2017
</metadata>
<g transform="translate(0.000000,512.000000) scale(0.100000,-0.100000)"
fill="#000000" stroke="none">
<path d="M270 3628 c1 -29 14 -45 100 -123 l100 -90 0 -811 0 -811 -105 -89
c-94 -79 -105 -92 -105 -121 l0 -33 377 -2 c290 -2 377 -6 381 -15 3 -10 -71
-13 -347 -13 l-351 0 0 -34 c0 -67 -7 -66 482 -66 l438 0 0 31 c0 25 -22 57
-117 168 -64 75 -122 141 -130 147 -10 9 -13 56 -13 213 l0 202 106 130 c59
71 109 129 113 129 13 0 344 -691 335 -699 -5 -4 -44 -34 -86 -66 -71 -52 -78
-61 -78 -91 l0 -34 438 0 c370 0 441 -2 458 -15 17 -13 -29 -14 -393 -15
l-413 0 0 -33 c0 -70 -24 -67 574 -67 l537 0 -3 35 c-3 33 -12 41 -223 182
l-219 148 -268 545 c-147 300 -268 550 -268 557 0 15 269 312 352 388 36 33
92 76 124 95 65 39 175 79 217 80 24 0 27 4 27 34 0 19 -3 41 -6 50 -13 34
-151 12 -274 -44 -45 -21 -57 -24 -40 -11 35 27 164 90 200 98 27 5 30 9 30
44 l0 39 -455 0 -455 0 0 -38 c0 -36 3 -40 38 -50 51 -15 118 -64 143 -105 26
-42 20 -88 -20 -152 -43 -68 -474 -583 -483 -578 -5 2 -8 142 -8 311 l0 307
80 80 c70 70 80 84 80 115 0 42 -14 60 -47 60 -18 0 -23 6 -23 25 l0 25 -400
0 -400 0 0 -32z m1309 -1017 c67 -134 120 -245 118 -248 -3 -2 -66 116 -141
262 -116 227 -135 269 -124 282 11 14 14 12 19 -18 3 -19 61 -144 128 -278z"/>
<path d="M2530 3628 c1 -29 14 -45 100 -123 l100 -90 0 -811 0 -811 -105 -89
c-94 -79 -105 -92 -105 -121 l0 -33 377 -2 c290 -2 377 -6 381 -15 3 -10 -71
-13 -347 -13 l-351 0 0 -34 c0 -67 -7 -66 482 -66 l438 0 0 31 c0 25 -22 57
-117 168 -64 75 -122 141 -130 147 -10 9 -13 56 -13 213 l0 202 106 130 c59
71 109 129 113 129 13 0 344 -691 335 -699 -5 -4 -44 -34 -86 -66 -71 -52 -78
-61 -78 -91 l0 -34 438 0 c370 0 441 -2 458 -15 17 -13 -29 -14 -393 -15
l-413 0 0 -33 c0 -70 -24 -67 574 -67 l537 0 -3 35 c-3 33 -12 41 -223 182
l-219 148 -268 545 c-147 300 -268 550 -268 557 0 15 269 312 352 388 36 33
92 76 124 95 65 39 175 79 217 80 24 0 27 4 27 34 0 19 -3 41 -6 50 -13 34
-151 12 -274 -44 -45 -21 -57 -24 -40 -11 35 27 164 90 200 98 27 5 30 9 30
44 l0 39 -455 0 -455 0 0 -38 c0 -36 3 -40 38 -50 51 -15 118 -64 143 -105 26
-42 20 -88 -20 -152 -43 -68 -474 -583 -483 -578 -5 2 -8 142 -8 311 l0 307
80 80 c70 70 80 84 80 115 0 42 -14 60 -47 60 -18 0 -23 6 -23 25 l0 25 -400
0 -400 0 0 -32z m1309 -1017 c67 -134 120 -245 118 -248 -3 -2 -66 116 -141
262 -116 227 -135 269 -124 282 11 14 14 12 19 -18 3 -19 61 -144 128 -278z"/>
</g>
</svg>
